<svg width="512" height="512" xmlns="http://www.w3.org/2000/svg" version="1.2">
 <g>
  <title>Layer 1</title>
  <g id="svg_7">
   <path transform="rotate(-13.0286 258.269 256.246)" id="svg_2" d="m253.59508,430.24708c-119.42444,-6.0789 -180.19017,-56.36865 -189.031,-158.49254c-8.84083,-102.1239 84.30084,-200.84441 198.25019,-188.84746c113.94935,11.99695 180.71355,58.5426 189.17602,166.73748c8.46246,108.19488 -78.97077,186.68142 -198.39521,180.60252z" opacity="undefined" stroke-width="0" stroke="#000" fill="#7c1f8c"/>
   <path id="svg_5" d="m344.05252,412.33298c14,1 16.29225,5.43753 24.17245,16.06895c7.8802,10.63142 34.65495,50.2414 49.2758,55c14.62085,4.7586 43.5863,1.6207 50.55175,-17.06895c6.96545,-18.68965 -4.96545,-35.68965 -17.96545,-51.68965c-13,-16 -31.03455,-38.31035 -36.03455,-41.31035c-5,-3 -6,-12 -6,-23c0,-11 -78,61 -64,62z" opacity="NaN" stroke-width="0" stroke="#000" fill="#7c1f8c"/>
  </g>
  <g id="svg_10">
   <path transform="rotate(-13.0286 258.269 225.579)" id="svg_8" d="m253.59508,399.58068c-119.42444,-6.0789 -180.19017,-56.36865 -189.031,-158.49255c-8.84082,-102.12389 84.30084,-200.8444 198.2502,-188.84745c113.94935,11.99695 180.71355,58.54259 189.17601,166.73747c8.46246,108.19488 -78.97076,186.68142 -198.39521,180.60253z" opacity="undefined" stroke-width="0" stroke="#000" fill="#9c27b0"/>
   <path id="svg_9" d="m344.05252,381.66658c14,1 16.29224,5.43752 24.17245,16.06895c7.8802,10.63142 34.65495,50.2414 49.2758,55c14.62085,4.7586 43.5863,1.6207 50.55175,-17.06895c6.96545,-18.68965 -4.96545,-35.68965 -17.96545,-51.68965c-13,-16 -31.03455,-38.31035 -36.03455,-41.31035c-5,-3 -6,-12 -6,-23c0,-11 -78,61 -64,62z" opacity="NaN" stroke-width="0" stroke="#000" fill="#9c27b0"/>
  </g>
  <ellipse transform="rotate(-13.0286 259.096 226.183)" stroke="#000" ry="110.3393" rx="122.5" id="svg_3" cy="226.18289" cx="259.0959" stroke-width="0" fill="#5727b0"/>
  <path id="svg_4" d="m101.66654,140.66654" opacity="NaN" stroke-width="0" stroke="#000" fill="#ff007f"/>
 </g>

</svg>