<?xml version="1.0" encoding="UTF-8" standalone="no"?>
<svg
   width="512"
   height="512"
   version="1.2"
   id="svg8314"
   sodipodi:docname="icon.svg"
   inkscape:version="1.1.1 (c3084ef, 2021-09-22)"
   xmlns:inkscape="http://www.inkscape.org/namespaces/inkscape"
   xmlns:sodipodi="http://sodipodi.sourceforge.net/DTD/sodipodi-0.dtd"
   xmlns="http://www.w3.org/2000/svg"
   xmlns:svg="http://www.w3.org/2000/svg">
  <defs
     id="defs8318" />
  <sodipodi:namedview
     id="namedview8316"
     pagecolor="#ffffff"
     bordercolor="#666666"
     borderopacity="1.0"
     inkscape:pageshadow="2"
     inkscape:pageopacity="0.0"
     inkscape:pagecheckerboard="0"
     showgrid="false"
     inkscape:snap-bbox="true"
     inkscape:zoom="0.21884361"
     inkscape:cx="980.15197"
     inkscape:cy="964.15882"
     inkscape:window-width="1440"
     inkscape:window-height="847"
     inkscape:window-x="0"
     inkscape:window-y="25"
     inkscape:window-maximized="1"
     inkscape:current-layer="svg8314" />
  <ellipse
     style="fill:#7c1f8c;fill-opacity:1;stroke-width:1.30917"
     id="path8678"
     cx="1123.7098"
     cy="954.71667"
     rx="207.93736"
     ry="201.19345" />
  <circle
     style="fill:#9c27b0;fill-opacity:1"
     id="circle11141"
     cx="1123.7098"
     cy="954.71667"
     r="156.23402" />
  <ellipse
     style="fill:#5727b0;fill-opacity:1;stroke-width:0.682089"
     id="circle13407"
     cx="1123.7098"
     cy="954.71667"
     rx="100.03474"
     ry="113.52257" />
  <rect
     style="fill:#7c1f8c;fill-opacity:1"
     id="rect18353"
     width="222.54918"
     height="314.716"
     x="1419.7773"
     y="678.51465"
     ry="42.711456" />
  <rect
     style="fill:#5727b0;fill-opacity:1"
     id="rect18641"
     width="222.54918"
     height="314.716"
     x="1451.2489"
     y="712.23419"
     ry="42.711456" />
  <rect
     style="fill:#9c27b0;fill-opacity:1;stroke-width:0.743806"
     id="rect22703"
     width="159.60597"
     height="242.78091"
     x="1482.7205"
     y="750.44977"
     ry="32.948837" />
  <rect
     style="fill:#9c27b0;fill-opacity:1;stroke-width:0.743806"
     id="rect22723"
     width="66.054619"
     height="128.64839"
     x="729.23224"
     y="1701.0509"
     ry="32.948837"
     transform="rotate(-35.241753)" />
  <path
     sodipodi:type="star"
     style="fill:#9c27b0;fill-opacity:1;stroke:#7c1f8c;stroke-opacity:1;stroke-width:30;stroke-miterlimit:4;stroke-dasharray:none"
     id="path39065"
     inkscape:flatsided="true"
     sodipodi:sides="6"
     sodipodi:cx="155.21072"
     sodipodi:cy="140.56821"
     sodipodi:r1="185.32211"
     sodipodi:r2="254.08467"
     sodipodi:arg1="1.0471976"
     sodipodi:arg2="1.5707963"
     inkscape:rounded="0.14184295"
     inkscape:randomized="0"
     d="M 247.87177,301.06187 C 225.10688,314.20519 85.314553,314.20518 62.54966,301.06186 39.784766,287.91854 -30.11139,166.85483 -30.111389,140.5682 c 10e-7,-26.28664 69.89617,-147.350339 92.661064,-160.493656 22.764895,-13.143316 162.557215,-13.143309 185.322115,10e-6 22.76489,13.1433183 92.66105,134.207026 92.66105,160.493666 0,26.28663 -69.89617,147.35033 -92.66107,160.49365 z"
     transform="rotate(90,146.42521,248.92287)" />
  <path
     sodipodi:type="star"
     style="fill:none;fill-opacity:1"
     id="path42593"
     inkscape:flatsided="true"
     sodipodi:sides="6"
     sodipodi:cx="155.21072"
     sodipodi:cy="140.56821"
     sodipodi:r1="185.32211"
     sodipodi:r2="254.08467"
     sodipodi:arg1="1.0471976"
     sodipodi:arg2="1.5707963"
     inkscape:rounded="0.14184295"
     inkscape:randomized="0"
     d="M 247.87177,301.06187 C 225.10688,314.20519 85.314553,314.20518 62.54966,301.06186 39.784766,287.91854 -30.11139,166.85483 -30.111389,140.5682 c 10e-7,-26.28664 69.89617,-147.350339 92.661064,-160.493656 22.764895,-13.143316 162.557215,-13.143309 185.322115,10e-6 22.76489,13.1433183 92.66105,134.207026 92.66105,160.493666 0,26.28663 -69.89617,147.35033 -92.66107,160.49365 z"
     transform="rotate(90,146.42521,248.92287)" />
  <g
     aria-label="Q"
     id="text57066"
     style="font-size:40px;line-height:1.25"
     transform="matrix(6,0,0,6,-1147.9363,-1184.7507)">
    <path
       d="m 237.28864,249.36493 q -1.19141,0.99609 -3.1836,0.99609 -1.52344,0 -2.61719,-0.64453 -1.11328,-0.54687 -1.79687,-1.42578 -0.83984,-0.91797 -1.11328,-2.40234 -0.3125,-1.48438 -0.3125,-5.6836 0,-4.19922 0.3125,-5.72265 0.27344,-1.44532 1.11328,-2.36328 0.68359,-0.87891 1.79687,-1.46485 1.09375,-0.5664 2.61719,-0.60547 1.54297,0.0391 2.67578,0.60547 1.07422,0.58594 1.71875,1.46485 0.83985,0.91796 1.15235,2.36328 0.29297,1.52343 0.29297,5.72265 0,4.51172 -0.41016,5.95703 v 0 l -3.32031,-2.63671 v 0 l -2.5586,2.94921 z m 3.53515,2.83203 3.59375,2.89063 v 0 l 2.5586,-2.96875 -3.75,-2.98829 q 0.58593,-0.97656 0.83984,-2.73437 0.19531,-1.75781 0.19531,-6.19141 0,-4.96093 -0.2539,-6.64062 -0.27344,-1.67969 -0.9961,-2.71485 -0.99609,-1.97265 -3.24219,-3.51562 -2.26562,-1.5625 -5.66406,-1.60156 -3.35937,0.0391 -5.60547,1.60156 -2.28515,1.54297 -3.32031,3.51562 -0.64453,1.03516 -0.95703,2.71485 -0.29297,1.67969 -0.29297,6.64062 0,4.88282 0.29297,6.60157 0.15625,0.91796 0.39062,1.52343 0.25391,0.58594 0.56641,1.23047 1.03516,1.97266 3.32031,3.47656 2.2461,1.5625 5.60547,1.64063 4.19922,-0.0781 6.71875,-2.48047 z"
       style="font-family:'DIN Alternate';-inkscape-font-specification:'DIN Alternate';fill:#ffffff"
       id="path63739" />
  </g>
</svg>
