<svg
  width="512"
  height="512"
  xmlns="http://www.w3.org/2000/svg"
  xmlns:xlink="http://www.w3.org/1999/xlink"
  xmlns:svg="http://www.w3.org/2000/svg"
>
  <defs>
    <linearGradient id="gradient">
      <stop style="stop-color: #7644d5; stop-opacity: 1" offset="0" />
      <stop style="stop-color: #5426ab; stop-opacity: 1" offset="1" />
    </linearGradient>
    <radialGradient
      xlink:href="#gradient"
      id="radialGradient"
      cx="155.21072"
      cy="140.56821"
      fx="155.21072"
      fy="140.56821"
      r="200.32211"
      gradientTransform="matrix(1,0,0,0.92526553,0,10.505291)"
      gradientUnits="userSpaceOnUse"
    />
  </defs>

  <path
    style="
      fill: url(#radialGradient);
      fill-opacity: 1;
      stroke: #4c229b;
      stroke-width: 30;
      stroke-miterlimit: 4;
      stroke-dasharray: none;
      stroke-opacity: 1;
    "
    transform="rotate(90,147.88947,248.67874)"
    d="M 247.87177,301.06187 C 225.10688,314.20519 85.314553,314.20518 62.54966,301.06186 39.784766,287.91854 -30.11139,166.85483 -30.111389,140.5682 c 10e-7,-26.28664 69.89617,-147.350339 92.661064,-160.493656 22.764895,-13.143316 162.557215,-13.143309 185.322115,10e-6 22.76489,13.1433183 92.66105,134.207026 92.66105,160.493666 0,26.28663 -69.89617,147.35033 -92.66107,160.49365 z"
  />
  <path
    fill="none"
    transform="rotate(90,147.88947,248.67874)"
    d="M 247.87177,301.06187 C 225.10688,314.20519 85.314553,314.20518 62.54966,301.06186 39.784766,287.91854 -30.11139,166.85483 -30.111389,140.5682 c 10e-7,-26.28664 69.89617,-147.350339 92.661064,-160.493656 22.764895,-13.143316 162.557215,-13.143309 185.322115,10e-6 22.76489,13.1433183 92.66105,134.207026 92.66105,160.493666 0,26.28663 -69.89617,147.35033 -92.66107,160.49365 z"
  />
  <g transform="matrix(5.3566489,0,0,5.3566489,-999.96211,-1031.963)">
    <path
      d="m 238.66131,252.51641 c -1.0782,0.89702 -2.51875,1.34553 -4.32164,1.34553 -1.37868,0 -2.56293,-0.29021 -3.55276,-0.87064 -1.00749,-0.49248 -1.82056,-1.13447 -2.43919,-1.92596 -0.76004,-0.82667 -1.26379,-1.90837 -1.51125,-3.24511 -0.28281,-1.33674 -0.42421,-3.8959 -0.42421,-7.67747 0,-3.78157 0.1414,-6.3583 0.42421,-7.73021 0.24746,-1.30157 0.75121,-2.36569 1.51125,-3.19235 0.61863,-0.79149 1.4317,-1.45107 2.43919,-1.97873 0.98983,-0.51007 2.17408,-0.78269 3.55276,-0.81788 1.39636,0.0352 2.60712,0.30783 3.63229,0.81788 0.97215,0.52766 1.74987,1.18724 2.33316,1.97873 0.76005,0.82666 1.28147,1.89078 1.56428,3.19235 0.26513,1.37191 0.39769,3.94864 0.39769,7.73021 0,4.06299 -0.18559,6.74526 -0.55678,8.04683 l 1.38935,4.34608 z m 4.79887,3.82554 4.12428,0.1045 -0.86317,-4.24664 c 0.53026,-0.87943 0.91028,-2.11064 1.14006,-3.69362 0.17675,-1.58298 0.26513,-4.37079 0.26513,-8.36343 0,-4.46751 -0.11489,-7.45759 -0.34466,-8.97022 -0.24746,-1.51263 -0.69819,-2.73504 -1.35218,-3.66725 -0.90144,-1.77645 -2.3685,-3.35943 -4.40117,-4.74894 -2.05035,-1.40709 -4.61328,-2.12823 -7.6888,-2.1634 -3.04016,0.0352 -5.57658,0.75633 -7.60926,2.1634 -2.06801,1.38951 -3.57042,2.97249 -4.50722,4.74894 -0.58329,0.93221 -1.01633,2.15462 -1.29914,3.66725 -0.26513,1.51263 -0.3977,4.50271 -0.3977,8.97022 0,4.39718 0.13257,7.36967 0.3977,8.91748 0.1414,0.82666 0.31815,1.51261 0.53025,2.05786 0.22979,0.52767 0.48608,1.08171 0.76889,1.66214 0.9368,1.77646 2.43921,3.34185 4.50722,4.69617 2.03268,1.40709 4.5691,2.14582 7.60926,2.21618 3.80021,-0.0703 6.84038,-1.18721 9.12051,-3.35064 z"
      stroke-width="1.35"
      fill="#ffffff"
    />
  </g>
</svg>
